<svg width="1422" height="1130" viewBox="0 0 1422 1130" fill="none" xmlns="http://www.w3.org/2000/svg">
<g filter="url(#filter0_b)">
<path d="M196.026 87.968C137.315 128.811 112.526 214.468 106.026 247.468C99.7402 279.382 124.318 438.963 125.942 449.428C125.956 449.514 125.962 449.557 125.968 449.597C126.008 449.858 126.038 450.08 126.069 450.342C126.074 450.383 126.079 450.427 126.089 450.515C127.322 461.278 146.562 627.804 162.526 682.468C179.026 738.968 206.911 838.734 279.026 905.468C358.734 979.227 538.11 1004.49 541.478 1004.96C541.508 1004.97 541.433 1004.95 541.442 1004.96C541.516 1004.97 541.54 1004.97 541.613 1004.98C541.622 1004.98 541.535 1004.97 541.57 1004.97C544.937 1005.47 742.425 1034.6 863.526 1004.97C966.777 979.702 1029.58 958.518 1109.53 888.468C1165.11 839.77 1199.32 808.063 1225.53 738.968C1257.24 655.35 1264.06 590.672 1225.53 509.968C1191.09 437.839 1139.76 417.46 1073.03 373.468C999.125 324.749 949.728 308.618 866.36 281.393L863.526 280.468C775.282 251.647 715.306 269.887 631.026 230.968C561.19 198.718 471.912 117.758 465.404 111.814C465.396 111.806 465.391 111.802 465.373 111.785C465.18 111.608 465.222 111.647 465.033 111.467C465.014 111.449 464.895 111.335 464.658 111.107C439.912 87.3589 282.152 28.0544 196.026 87.968Z" fill="#6236FF"/>
<path d="M863.526 280.468C775.282 251.647 715.306 269.887 631.026 230.968C561.19 198.718 471.912 117.758 465.404 111.814C465.396 111.806 465.391 111.802 465.373 111.785C465.18 111.608 465.222 111.647 465.033 111.467C465.014 111.449 464.895 111.335 464.658 111.107C439.912 87.3589 282.152 28.0544 196.026 87.968C137.315 128.811 112.526 214.468 106.026 247.468C99.7402 279.382 124.318 438.963 125.942 449.428C125.956 449.514 125.962 449.557 125.968 449.597C126.008 449.858 126.038 450.08 126.069 450.342C126.074 450.383 126.079 450.427 126.089 450.515C127.322 461.278 146.562 627.804 162.526 682.468C179.026 738.968 206.911 838.734 279.026 905.468C358.734 979.227 538.11 1004.49 541.478 1004.96C541.508 1004.97 541.433 1004.95 541.442 1004.96C541.516 1004.97 541.54 1004.97 541.613 1004.98C541.622 1004.98 541.535 1004.97 541.57 1004.97C544.937 1005.47 742.425 1034.6 863.526 1004.97C966.777 979.702 1029.58 958.518 1109.53 888.468C1165.11 839.77 1199.32 808.063 1225.53 738.968C1257.24 655.35 1264.06 590.672 1225.53 509.968C1191.09 437.839 1139.76 417.46 1073.03 373.468C999.125 324.749 949.728 308.618 866.36 281.393M863.526 280.468L866.36 281.393M863.526 280.468C864.475 280.778 865.42 281.086 866.36 281.393" stroke="#6236FF"/>
</g>
<path d="M655.3 711.479H644.9C553.2 711.479 478.9 785.779 478.9 877.479V910.379C478.9 915.679 483.2 919.979 488.5 919.979H829.5C839 919.979 846.6 912.279 846.6 902.879C846.6 797.179 760.9 711.479 655.3 711.479Z" fill="#2894F5"/>
<path d="M488.5 919.879H829.5C834.4 919.879 838.9 917.779 842 914.379L810.1 892.179C810.1 813.279 746.2 749.379 667.3 749.379H663.1C594.7 749.379 539.2 804.879 539.2 873.279L481.4 916.679C483.1 918.679 485.7 919.879 488.5 919.879Z" fill="#0A4A6F"/>
<path d="M701.967 833.07C723.114 812.197 718.932 773.672 692.627 747.022C666.322 720.373 627.855 715.69 606.708 736.563C585.562 757.437 589.743 795.962 616.048 822.611C642.353 849.261 680.821 853.943 701.967 833.07Z" fill="#2894F5"/>
<path d="M694.178 822.641C711.905 805.143 708.411 772.859 686.374 750.533C664.336 728.207 632.101 724.293 614.374 741.791C596.647 759.289 600.141 791.573 622.178 813.899C644.216 836.225 676.451 840.138 694.178 822.641Z" fill="#FFB3A6"/>
<path d="M642.7 730.879C621.4 730.879 606.4 744.579 603.6 763.979C612.6 788.979 637.8 808.179 663 808.179C684.3 808.179 699.3 794.479 702.1 775.079C693 750.079 667.9 730.879 642.7 730.879Z" fill="#F49E92"/>
<path d="M763.2 680.278L760.9 677.678L757 707.178L755.9 735.078L758.2 730.478C762.5 721.678 765 712.178 765.6 702.378L766.4 689.878C766.6 686.378 765.5 682.878 763.2 680.278Z" fill="#FFB3A6"/>
<path d="M737.1 666.179L731.6 684.279L710.2 716.179C702.1 728.479 699.4 743.579 702.7 757.979L703.9 763.179C704.3 764.779 704.9 766.278 705.7 767.678L770.8 881.678C782.7 902.578 803.7 916.679 827.5 919.779C848 922.479 865.4 904.678 862.4 884.178L861.8 880.379C858.9 860.979 848.7 843.379 833.4 831.279L746.8 762.879L760.4 721.879L763.2 677.979L756.7 655.879C753.4 660.879 752.1 666.979 753.1 672.979L754.1 679.079L749.3 703.979L752.6 678.879L747.5 654.979L746.7 656.879C744.5 661.679 743.8 666.979 744.6 672.179L744.3 679.379L736.3 700.879L741.3 679.779L741.5 661.079C739.3 661.979 737.8 663.879 737.1 666.179Z" fill="#FFB3A6"/>
<path d="M833.4 831.278L746.8 762.878C746.8 762.878 846.4 854.478 859.8 902.178C862.3 896.778 863.4 890.678 862.4 884.178L861.8 880.378C858.9 860.978 848.8 843.378 833.4 831.278Z" fill="#FFD0C5"/>
<path d="M727.8 660.079L718.5 662.979L692.1 578.579C686.3 559.879 696.7 539.979 715.4 534.079L735.3 527.879L758.3 601.579C766 626.179 752.3 652.379 727.8 660.079Z" fill="#1E0F00"/>
<path d="M656.5 768.479C615.3 768.479 582 735.079 582 693.979V608.179C582 568.879 613.8 537.079 653.1 537.079H665C710 537.079 746.5 573.579 746.5 618.579V678.579C746.5 728.179 706.2 768.479 656.5 768.479Z" fill="#FFD0C5"/>
<path d="M665 536.979H653.1C629.6 536.979 608.7 548.379 595.8 565.979V598.979C595.8 640.179 629.2 673.479 670.3 673.479C702.4 673.479 730.5 656.679 746.5 631.379V618.379C746.5 573.479 710 536.979 665 536.979Z" fill="#FFB3A6"/>
<path d="M591.6 671.979L582.3 674.879L555.9 590.579C550.1 571.879 560.5 551.979 579.2 546.079L599.1 539.879L622.1 613.579C629.8 638.079 616.2 664.279 591.6 671.979Z" fill="#1E0F00"/>
<path d="M570.1 598.679C564.3 579.979 574.7 560.079 593.4 554.179L602.7 551.279L599.1 539.779L579.2 545.979C560.5 551.779 550.1 571.779 555.9 590.479L582.3 674.779L591.6 671.879C592 671.779 592.5 671.579 592.9 671.479L570.1 598.679Z" fill="#094A73"/>
<path d="M761 585.779H584.6V563.779C584.6 531.079 611.1 504.579 643.8 504.579H679.9C724.7 504.579 761 540.979 761 585.779Z" fill="#1E0F00"/>
<path d="M613.9 533.779L787.2 500.979C791.6 523.979 776.4 546.179 753.4 550.579L663.5 567.579C640.5 571.879 618.3 556.779 613.9 533.779Z" fill="#1E0F00"/>
<path d="M689.5 519.278L758.8 506.178C760.5 515.378 754.5 524.278 745.3 525.978L709.3 532.778C700.1 534.578 691.3 528.478 689.5 519.278Z" fill="#094A73"/>
<path d="M629.5 538.278L723.1 483.178C730.4 495.578 726.3 511.578 713.8 518.978L665.3 547.578C652.8 554.878 636.8 550.778 629.5 538.278Z" fill="#1E0F00"/>
<path d="M584.2 686.279C594.693 686.279 603.2 675.936 603.2 663.179C603.2 650.421 594.693 640.079 584.2 640.079C573.707 640.079 565.2 650.421 565.2 663.179C565.2 675.936 573.707 686.279 584.2 686.279Z" fill="#FFD0C5"/>
<path d="M583.8 649.579C578.2 649.579 573.5 654.579 572.7 661.179C574.4 659.979 576.3 659.379 578.3 659.379C584.5 659.379 589.5 665.479 589.5 673.079C589.5 673.779 589.5 674.479 589.4 675.179C592.7 672.779 595 668.379 595 663.379C595 655.679 590 649.579 583.8 649.579Z" fill="#FFB3A6"/>
<path d="M576.1 690.779L578.7 688.479V718.279L576.1 746.079L574.5 741.179C571.4 731.879 570.1 722.079 570.8 712.379L571.7 699.879C571.8 696.379 573.4 693.079 576.1 690.779Z" fill="#FFB3A6"/>
<path d="M603.8 680.179L606.9 698.879L624 733.279C630.4 746.579 631.1 761.879 626 775.679L624.1 780.679C623.5 782.179 622.7 783.579 621.8 784.879L542.2 889.479C527.6 908.579 505 919.879 480.9 919.879C460.1 919.879 445.1 899.979 450.8 879.979L451.9 876.279C457.3 857.379 469.7 841.279 486.6 831.279L581.6 774.679L573.4 732.279L576.4 688.379L585.7 667.279C588.3 672.679 588.8 678.879 587.1 684.679L585.3 690.579L586.8 715.879V690.579L595 667.579L595.6 669.479C597.2 674.479 597.2 679.879 595.7 684.979L595 692.079L600.2 714.379L598 692.779L600.2 674.179C602.1 675.779 603.4 677.879 603.8 680.179Z" fill="#FFD0C5"/>
<path d="M624.2 780.679L626.1 775.679C631.2 761.879 630.5 746.579 624.1 733.279L607 698.879L603.9 680.179C603.5 677.779 602.2 675.679 600.3 674.279L600 676.979C600.9 679.979 603.2 687.879 602.6 694.279C601.9 702.479 625.7 750.079 613.8 774.679C601.9 799.279 513.3 922.879 453.4 903.079C458.6 912.879 468.8 919.779 481.1 919.779C505.2 919.779 527.8 908.579 542.4 889.379L622 784.779C622.8 783.579 623.6 782.179 624.2 780.679Z" fill="#FFB3A6"/>
<path d="M592.8 673.879C593.3 678.079 593.6 684.879 591.3 691.379C592 698.079 594.8 708.879 600.1 713.879L595 692.079L595.7 684.979C597.2 679.979 597.2 674.579 595.6 669.479L595 667.579L592.8 673.879Z" fill="#FFB3A6"/>
<path d="M582.4 688.479C582.4 688.479 581.7 709.179 586.8 715.179L585.4 690.679L587.2 684.779C588.8 679.279 588.5 673.379 586.2 668.179C586 670.879 585.7 683.179 582.4 688.479Z" fill="#FFB3A6"/>
<path d="M696.4 720.479C684.9 720.479 674 728.279 672.1 737.979C672.1 738.079 672.1 738.079 672.1 738.179C671.8 739.679 673.8 740.579 674.8 739.379C679.4 733.879 687 730.179 695 730.179C702.5 730.179 708.4 733.479 711.1 738.479C711.8 739.679 713.6 739.479 713.9 738.079C715.7 728.279 707.9 720.479 696.4 720.479Z" fill="#FFB3A6"/>
<path d="M633.9 417.379C631.7 406.579 631.9 398.079 634.6 391.879C637.2 385.679 642.9 377.979 651.4 368.779C655.9 364.379 659.1 359.579 661.1 354.079C663.1 348.679 663.4 342.779 662.1 336.479C660.7 329.979 657.9 325.179 653.6 321.979C649.3 318.879 643.9 317.979 637.5 319.279C632.3 320.379 628.3 322.879 625.5 326.779C622.7 330.679 621.9 335.779 623 342.079L584.8 350.179L584.4 349.579C580.8 333.479 583.3 320.279 592.1 309.979C600.9 299.679 613.9 292.679 631.1 289.079C649.5 285.179 665 286.779 677.6 293.779C690.1 300.879 698.1 312.279 701.4 328.079C703.5 337.779 702.4 347.279 698.4 356.679C694.3 366.079 688.4 373.979 680.4 380.479C676.1 384.779 673.5 388.979 672.6 393.079C671.7 397.179 671.9 402.479 673.2 408.879L633.9 417.379ZM683.3 457.379L644.3 465.679L637.7 434.279L676.7 425.979L683.3 457.379Z" fill="#0A4A6F"/>
<path d="M771.6 480.879L759.1 463.279L773.2 453.279L785.7 470.879L771.6 480.879ZM780.9 447.779C785.8 444.379 790 442.679 793.7 442.679C797.4 442.679 802.4 443.779 808.8 446.079C811.9 447.379 815 447.979 818.2 447.779C821.3 447.579 824.3 446.479 827.1 444.479C830 442.379 831.8 439.979 832.4 437.179C833 434.379 832.3 431.479 830.3 428.579C828.6 426.279 826.5 424.779 824 424.279C821.5 423.679 818.7 424.379 815.9 426.379L803.7 409.179L803.9 408.879C811.1 403.679 818.2 402.079 825.2 404.279C832.2 406.379 838.4 411.379 843.9 419.079C849.8 427.379 852.3 435.379 851.5 443.079C850.7 450.779 846.7 457.179 839.6 462.279C835.2 465.379 830.3 466.879 824.8 466.879C819.3 466.879 814.1 465.579 809.1 463.079C806.1 461.879 803.4 461.479 801.2 461.879C798.9 462.279 796.4 463.479 793.5 465.579L780.9 447.779Z" fill="#0A4A6F"/>
<path d="M554 483.979C549.7 479.879 547.2 476.079 546.4 472.479C545.7 468.879 545.8 463.779 546.8 457.079C547.5 453.779 547.4 450.579 546.6 447.579C545.8 444.579 544.1 441.879 541.6 439.479C539 436.979 536.2 435.779 533.4 435.679C530.5 435.579 527.9 436.879 525.4 439.479C523.4 441.579 522.4 443.879 522.4 446.479C522.4 449.079 523.6 451.579 526 454.079L511.5 469.479L511.1 469.279C504.5 463.279 501.6 456.679 502.3 449.379C503 442.079 506.6 434.979 513.1 428.079C520.1 420.679 527.4 416.579 535.2 415.879C542.9 415.179 550 417.779 556.3 423.779C560.2 427.479 562.7 431.979 563.8 437.379C564.9 442.779 564.7 448.179 563.2 453.479C562.6 456.679 562.8 459.379 563.6 461.479C564.4 463.579 566.2 465.879 568.7 468.279L554 483.979ZM588.2 486.579L573.4 502.279L560.8 490.379L575.6 474.679L588.2 486.579Z" fill="#0A4A6F"/>
<path d="M750.3 765.479C750.3 765.479 756.1 760.479 763.6 763.979C771.1 767.479 778.4 773.779 778.6 779.779C778.8 785.779 770.5 818.779 733.2 815.779C729 814.379 725.5 811.279 723.5 807.279L722.3 804.879C721.3 802.879 722.7 800.479 725 800.479C731.7 800.379 743.9 798.679 752.8 789.379C765.8 775.679 750.3 765.479 750.3 765.479Z" fill="white"/>
<path d="M757.9 762.779C753.4 762.879 750.3 765.479 750.3 765.479C750.3 765.479 765.8 775.779 752.8 789.279C743.8 798.679 731.7 800.279 725 800.379C722.8 800.379 721.3 802.779 722.3 804.779L723.5 807.179C723.9 807.979 724.4 808.779 724.9 809.479C757.5 808.879 765 778.979 764.7 773.379C764.6 769.679 761.7 765.879 757.9 762.779Z" fill="#CCE9FF"/>
<path d="M760.4 804.178C761.56 804.178 762.5 803.238 762.5 802.078C762.5 800.919 761.56 799.979 760.4 799.979C759.24 799.979 758.3 800.919 758.3 802.078C758.3 803.238 759.24 804.178 760.4 804.178Z" fill="#CCE9FF"/>
<path d="M742 813.779C743.16 813.779 744.1 812.838 744.1 811.679C744.1 810.519 743.16 809.579 742 809.579C740.84 809.579 739.9 810.519 739.9 811.679C739.9 812.838 740.84 813.779 742 813.779Z" fill="#CCE9FF"/>
<path d="M752.4 810.279C753.56 810.279 754.5 809.338 754.5 808.179C754.5 807.019 753.56 806.079 752.4 806.079C751.24 806.079 750.3 807.019 750.3 808.179C750.3 809.338 751.24 810.279 752.4 810.279Z" fill="#CCE9FF"/>
<path d="M992 918.979H386.4C430.6 951.179 480.9 969.479 525.7 969.479H527C549 991.079 577.8 1004.18 603.1 1004.18H844.7C870 1004.18 888.1 991.079 892.5 969.479H893.8C938.6 969.379 974 951.179 992 918.979Z" fill="#6236FF"/>
<path d="M992 918.979H386.4C430.6 951.179 480.9 969.479 525.7 969.479H527C549 991.079 577.8 1004.18 603.1 1004.18H844.7C870 1004.18 888.1 991.079 892.5 969.479H893.8C938.6 969.379 974 951.179 992 918.979Z" fill="#6236FF"/>
<defs>
<filter id="filter0_b" x="100.5" y="57.5" width="1155.93" height="965.252" filterUnits="userSpaceOnUse" color-interpolation-filters="sRGB">
<feFlood flood-opacity="0" result="BackgroundImageFix"/>
<feGaussianBlur in="BackgroundImage" stdDeviation="2"/>
<feComposite in2="SourceAlpha" operator="in" result="effect1_backgroundBlur"/>
<feBlend mode="normal" in="SourceGraphic" in2="effect1_backgroundBlur" result="shape"/>
</filter>
</defs>
</svg>
